#N canvas 1031 23 1080 966 10;
#X obj 8 29 tgl 17 0 empty empty ON/OFF 20 8 0 10 -4034 -1 -1 1 1;
#X obj 85 -9 nbx 4 17 -1e+37 1e+37 0 0 empty empty BPM 0 -8 0 10 -262144
-1 -1 73 256;
#X obj 85 35 /;
#X floatatom 85 57 5 0 0 1 ms - -;
#X msg 85 13 15000 \$1;
#X obj 8 73 metro;
#X obj 8 95 i;
#X obj 38 95 + 1;
#X msg 35 134 0;
#X obj 8 117 sel 16;
#X obj 58 112 sel 0;
#X obj 8 51 t f b;
#X obj 85 134 - 1;
#X obj 85 156 % 4;
#X obj 85 178 + 1;
#X obj 85 200 sel 1;
#X obj 85 222 bng 17 50 50 0 empty empty empty 17 7 0 10 -262144 -1
-1;
#X obj 85 78 s ms;
#N canvas 1097 363 467 437 formants~ 0;
#X msg -15 88 1;
#X obj 205 83 r ms;
#X obj 205 105 * 4;
#X obj -15 110 t b f;
#X obj 205 127 /;
#X obj -15 66 sel 0 1 2 3 4 5 6;
#X msg 15 88 2;
#X msg 45 88 3;
#X msg 75 88 4;
#X msg 105 88 6;
#X msg 135 88 8;
#X obj -15 44 random 7;
#X msg 205 149 1000 \$1;
#X obj 205 171 /;
#X obj 205 193 * -1;
#X obj 205 215 phasor~;
#X obj 205 237 *~ 2;
#X obj 205 259 -~ 1;
#X msg -15 138 0;
#X obj 205 303 *~ 4;
#X msg 295 39 1 \, 0 1;
#X obj 295 61 line~;
#X obj 244 78 samphold~;
#X obj 244 56 noise~;
#X obj 244 100 +~ 1;
#X obj 244 122 *~ 50;
#X msg 385 39 1 \, 0 1;
#X obj 385 61 line~;
#X obj 334 78 samphold~;
#X obj 334 56 noise~;
#X obj -15 22 inlet;
#X obj 274 303 *~ 4;
#X obj 205 391 outlet~;
#X obj 274 391 outlet~;
#X obj 205 325 *~;
#X obj 274 325 *~;
#X msg 165 88 9;
#X obj -15 286 random 128;
#X obj -15 308 / 127;
#X obj -15 330 lop~ 500;
#X obj 205 347 *~;
#X obj 274 347 *~;
#X obj 125 298 s~ formants1;
#X obj 125 232 *~ -1;
#X obj 125 254 +~ 1;
#X obj 140 330 r formants;
#X obj 140 352 lop~ 20;
#X obj 205 369 *~;
#X obj 274 369 *~;
#X obj 125 276 *~;
#X obj 205 281 formants~ 40;
#X connect 0 0 3 0;
#X connect 1 0 2 0;
#X connect 2 0 4 0;
#X connect 3 0 4 0;
#X connect 3 1 4 1;
#X connect 4 0 12 0;
#X connect 5 0 0 0;
#X connect 5 1 6 0;
#X connect 5 2 7 0;
#X connect 5 3 8 0;
#X connect 5 4 9 0;
#X connect 5 5 10 0;
#X connect 5 6 36 0;
#X connect 6 0 3 0;
#X connect 7 0 3 0;
#X connect 8 0 3 0;
#X connect 9 0 3 0;
#X connect 10 0 3 0;
#X connect 11 0 5 0;
#X connect 12 0 13 0;
#X connect 13 0 14 0;
#X connect 14 0 15 0;
#X connect 15 0 16 0;
#X connect 15 0 34 1;
#X connect 15 0 35 1;
#X connect 15 0 43 0;
#X connect 16 0 17 0;
#X connect 17 0 50 0;
#X connect 18 0 15 1;
#X connect 19 0 34 0;
#X connect 20 0 21 0;
#X connect 21 0 22 1;
#X connect 22 0 24 0;
#X connect 23 0 22 0;
#X connect 24 0 25 0;
#X connect 25 0 50 1;
#X connect 26 0 27 0;
#X connect 27 0 28 1;
#X connect 28 0 50 2;
#X connect 29 0 28 0;
#X connect 30 0 20 0;
#X connect 30 0 26 0;
#X connect 30 0 18 0;
#X connect 30 0 11 0;
#X connect 30 0 37 0;
#X connect 31 0 35 0;
#X connect 34 0 40 0;
#X connect 35 0 41 0;
#X connect 36 0 3 0;
#X connect 37 0 38 0;
#X connect 38 0 39 0;
#X connect 39 0 41 1;
#X connect 39 0 40 1;
#X connect 40 0 47 0;
#X connect 41 0 48 0;
#X connect 43 0 44 0;
#X connect 44 0 49 0;
#X connect 45 0 46 0;
#X connect 46 0 47 1;
#X connect 46 0 48 1;
#X connect 46 0 49 1;
#X connect 47 0 32 0;
#X connect 48 0 33 0;
#X connect 49 0 42 0;
#X connect 50 0 19 0;
#X connect 50 1 31 0;
#X restore 225 239 pd formants~;
#N canvas 1393 569 169 340 kick~ 0;
#X msg 12 -1115 100 \, 0 \$2;
#X obj 57 -1181 r ms;
#X obj 12 -1137 pack f f;
#X obj 12 -1093 line~;
#X obj 12 -1071 dbtorms~;
#X obj 12 -1005 osc~;
#X obj 52 -988 lop~ 60;
#X obj 12 -1027 +~ 40;
#X obj 12 -949 clip~ -1 1;
#X obj 12 -927 *~;
#X obj 12 -1049 *~ 120;
#X obj 12 -1181 inlet;
#X obj 12 -883 outlet~;
#X obj 52 -966 *~ 4;
#X obj 57 -1159 * 3;
#X msg 63 -1022 0;
#X obj 87 -944 r kick;
#X obj 87 -922 lop~ 20;
#X obj 12 -905 *~;
#X obj 95 -1176 r kick;
#X obj 12 -1159 spigot;
#X obj 92 -1131 s kickbang;
#X connect 0 0 3 0;
#X connect 1 0 14 0;
#X connect 2 0 0 0;
#X connect 3 0 4 0;
#X connect 4 0 10 0;
#X connect 4 0 9 1;
#X connect 5 0 8 0;
#X connect 5 0 6 0;
#X connect 6 0 13 0;
#X connect 7 0 5 0;
#X connect 8 0 9 0;
#X connect 9 0 18 0;
#X connect 10 0 7 0;
#X connect 11 0 20 0;
#X connect 13 0 8 0;
#X connect 14 0 2 1;
#X connect 15 0 5 1;
#X connect 16 0 17 0;
#X connect 17 0 18 1;
#X connect 18 0 12 0;
#X connect 19 0 20 1;
#X connect 20 0 2 0;
#X connect 20 0 15 0;
#X connect 20 0 21 0;
#X restore 165 239 pd kick~;
#N canvas 1158 720 376 303 contra~ 0;
#X obj 12 11 r ms;
#X msg 12 33 1000 \$1;
#X obj 12 55 /;
#X obj 12 77 * -1;
#X obj 12 99 phasor~;
#X msg 51 77 0;
#X obj 233 131 *~;
#X obj 173 182 osc~;
#X obj 233 87 /~ 2;
#X obj 233 109 +~ 0.5;
#X obj -48 94 osc~;
#X msg -48 50 1000 \$1;
#X obj -48 72 /;
#X obj -48 131 /~ 2;
#X obj -48 153 +~ 0.5;
#X obj 12 121 *~ 100;
#X obj 12 143 dbtorms~;
#X obj 233 165 *~ 16;
#X obj 117 148 *~ 4000;
#X obj 12 165 *~ 4000;
#X obj 12 187 *~;
#X obj 117 170 *~;
#X obj 72 148 sig~ 1;
#X obj 72 170 -~;
#X obj 173 204 svf~ \$2 0.01;
#X obj 233 65 phasor~ 1348;
#X obj -48 28 * 4;
#X obj 173 50 + 600;
#X obj 173 72 pack f f;
#X obj 173 94 line~;
#X obj 248 28 * 16;
#X obj 173 226 *~;
#X obj 51 11 inlet;
#X obj 219 226 *~;
#X obj 173 270 outlet~;
#X obj 219 270 outlet~;
#X obj 173 28 random 400;
#X obj 173 248 *~;
#X obj 219 248 *~;
#X obj 94 209 r contra;
#X obj 94 231 lop~ 0.5;
#X connect 0 0 1 0;
#X connect 0 0 26 0;
#X connect 0 0 30 0;
#X connect 1 0 2 0;
#X connect 2 0 3 0;
#X connect 3 0 4 0;
#X connect 4 0 15 0;
#X connect 4 0 18 0;
#X connect 4 0 31 1;
#X connect 4 0 33 1;
#X connect 5 0 4 1;
#X connect 5 0 10 1;
#X connect 6 0 17 0;
#X connect 7 0 24 0;
#X connect 8 0 9 0;
#X connect 9 0 6 0;
#X connect 10 0 13 0;
#X connect 11 0 12 0;
#X connect 12 0 10 0;
#X connect 13 0 14 0;
#X connect 14 0 21 1;
#X connect 14 0 23 1;
#X connect 15 0 16 0;
#X connect 16 0 19 0;
#X connect 17 0 7 0;
#X connect 18 0 21 0;
#X connect 19 0 20 0;
#X connect 20 0 24 1;
#X connect 21 0 24 1;
#X connect 22 0 23 0;
#X connect 23 0 20 1;
#X connect 24 0 31 0;
#X connect 24 2 33 0;
#X connect 25 0 8 0;
#X connect 26 0 11 0;
#X connect 27 0 28 0;
#X connect 28 0 29 0;
#X connect 29 0 7 0;
#X connect 29 0 6 1;
#X connect 30 0 28 1;
#X connect 31 0 37 0;
#X connect 32 0 5 0;
#X connect 32 0 36 0;
#X connect 33 0 38 0;
#X connect 36 0 27 0;
#X connect 37 0 34 0;
#X connect 38 0 35 0;
#X connect 39 0 40 0;
#X connect 40 0 38 1;
#X connect 40 0 37 1;
#X restore 58 239 pd contra~;
#X obj 58 315 hip~ 3;
#N canvas 1093 615 95 69 ~ 0;
#X obj 7 6 inlet~;
#X obj 7 28 outlet~;
#X connect 0 0 1 0;
#X restore 25 298 pd ~;
#X obj 108 315 hip~ 3;
#X obj 165 261 *~ 0.25;
#X obj 265 261 *~ 0.1;
#X obj 315 261 *~ 0.1;
#X obj 58 359 dac~;
#X obj 58 337 *~ 1;
#X obj 108 337 *~ 1;
#N canvas 645 150 461 611 snare 0;
#X obj 19 -9 inlet;
#X obj 19 13 sel 1 2 3 4;
#X obj 19 69 spigot;
#X obj 19 35 t b b;
#X obj 52 52 random 2;
#X obj 69 69 spigot;
#X obj 112 52 random 2;
#X obj 119 69 spigot;
#X obj 169 69 spigot;
#X obj 64 191 r ms;
#X obj 19 235 pack f f;
#X obj 19 279 line~;
#X obj 19 301 dbtorms~;
#X obj -106 368 osc~;
#X obj -26 385 s~ \$0-fbk;
#X obj -46 328 *~;
#X obj -46 306 r~ \$0-fbk;
#X obj -106 407 *~;
#X obj -106 498 clip~ -1 1;
#X obj 184 191 r ms;
#X obj 139 235 pack f f;
#X msg 139 257 106 \, 0 \$2;
#X obj 139 279 line~;
#X obj 139 301 dbtorms~;
#X obj 84 338 *~;
#X obj 84 309 noise~;
#X msg 19 257 106 \, 0 \$2;
#X obj 184 213 * 3;
#X obj 64 213 * 1.5;
#X obj 84 402 hip~ 300;
#X obj 161 366 /~ 2;
#X obj 161 388 +~ 0.5;
#X msg 230 287 1 \, 0 1;
#X obj 230 309 line~;
#X obj 161 326 samphold~;
#X obj 35 459 vcf~ 30;
#X obj 19 91 bang;
#X obj -22 130 random 3000;
#X obj -22 152 / 1000;
#X obj -22 174 + 0.1;
#X obj 19 113 t b b;
#X floatatom 84 256 5 0 0 0 - - -;
#X obj -22 196 t b f;
#X obj -46 350 *~ 18;
#X obj 118 152 / 1000;
#X obj 118 196 t b f;
#X obj 118 174 + 1;
#X obj 118 130 random 4000;
#X obj -106 429 *~ 0.8;
#X obj 84 360 *~ 0.2;
#X obj 161 432 +~ 200;
#X obj 161 410 *~ 400;
#X obj 35 481 *~ 4;
#X obj 268 130 random 128;
#X obj 268 503 lop~ 500;
#X obj 268 152 / 127;
#X obj -106 520 *~;
#X obj -106 564 outlet~;
#X obj -106 542 *~;
#X obj -31 503 r snare;
#X obj -31 525 lop~ 20;
#X connect 0 0 1 0;
#X connect 1 0 3 0;
#X connect 1 1 5 0;
#X connect 1 2 7 0;
#X connect 1 3 8 0;
#X connect 2 0 36 0;
#X connect 3 0 2 0;
#X connect 3 1 4 0;
#X connect 3 1 6 0;
#X connect 4 0 2 1;
#X connect 4 0 7 1;
#X connect 5 0 36 0;
#X connect 6 0 5 1;
#X connect 6 0 8 1;
#X connect 7 0 36 0;
#X connect 8 0 36 0;
#X connect 9 0 28 0;
#X connect 10 0 26 0;
#X connect 11 0 12 0;
#X connect 12 0 17 1;
#X connect 13 0 14 0;
#X connect 13 0 17 0;
#X connect 15 0 43 0;
#X connect 16 0 15 0;
#X connect 17 0 35 0;
#X connect 17 0 48 0;
#X connect 18 0 56 0;
#X connect 19 0 27 0;
#X connect 20 0 21 0;
#X connect 21 0 22 0;
#X connect 22 0 23 0;
#X connect 23 0 24 1;
#X connect 24 0 49 0;
#X connect 25 0 24 0;
#X connect 25 0 34 0;
#X connect 26 0 11 0;
#X connect 27 0 20 1;
#X connect 28 0 10 1;
#X connect 29 0 18 0;
#X connect 29 0 35 0;
#X connect 30 0 31 0;
#X connect 31 0 51 0;
#X connect 32 0 33 0;
#X connect 33 0 34 1;
#X connect 34 0 30 0;
#X connect 35 0 52 0;
#X connect 36 0 40 0;
#X connect 37 0 38 0;
#X connect 38 0 39 0;
#X connect 39 0 42 0;
#X connect 40 0 10 0;
#X connect 40 0 20 0;
#X connect 40 0 32 0;
#X connect 40 1 37 0;
#X connect 40 1 47 0;
#X connect 40 1 53 0;
#X connect 42 0 28 0;
#X connect 42 1 28 1;
#X connect 43 0 13 0;
#X connect 44 0 46 0;
#X connect 45 0 27 0;
#X connect 45 1 27 1;
#X connect 46 0 45 0;
#X connect 47 0 44 0;
#X connect 48 0 18 0;
#X connect 49 0 29 0;
#X connect 50 0 35 1;
#X connect 50 0 15 1;
#X connect 50 0 13 0;
#X connect 51 0 50 0;
#X connect 52 0 18 0;
#X connect 53 0 55 0;
#X connect 54 0 56 1;
#X connect 55 0 54 0;
#X connect 56 0 58 0;
#X connect 58 0 57 0;
#X connect 59 0 60 0;
#X connect 60 0 58 1;
#X restore 25 195 pd snare;
#N canvas 1097 363 453 395 formants~ 0;
#X msg -15 68 1;
#X obj 205 63 r ms;
#X obj 205 85 * 4;
#X obj -15 90 t b f;
#X obj 205 107 /;
#X obj -15 46 sel 0 1 2 3 4 5 6;
#X msg 15 68 2;
#X msg 45 68 3;
#X msg 75 68 4;
#X msg 105 68 6;
#X msg 135 68 8;
#X obj -15 24 random 7;
#X msg 205 129 1000 \$1;
#X obj 205 151 /;
#X obj 205 173 * -1;
#X obj 205 195 phasor~;
#X obj 205 217 *~ 2;
#X obj 205 239 -~ 1;
#X msg -15 118 0;
#X obj 205 283 *~ 4;
#X msg 295 19 1 \, 0 1;
#X obj 295 41 line~;
#X obj 244 58 samphold~;
#X obj 244 36 noise~;
#X obj 244 80 +~ 1;
#X obj 244 102 *~ 50;
#X msg 385 19 1 \, 0 1;
#X obj 385 41 line~;
#X obj 334 58 samphold~;
#X obj 334 36 noise~;
#X obj -15 2 inlet;
#X obj 274 283 *~ 4;
#X obj 205 371 outlet~;
#X obj 274 371 outlet~;
#X obj 205 305 *~;
#X obj 274 305 *~;
#X msg 165 68 9;
#X obj -15 266 random 128;
#X obj -15 288 / 127;
#X obj -15 310 lop~ 500;
#X obj 205 327 *~;
#X obj 274 327 *~;
#X obj 115 212 *~ -1;
#X obj 115 234 +~ 1;
#X obj 115 278 s~ formants2;
#X obj 205 349 *~;
#X obj 274 349 *~;
#X obj 130 310 r formants;
#X obj 130 332 lop~ 20;
#X obj 115 256 *~;
#X obj 205 261 formants~ 40;
#X connect 0 0 3 0;
#X connect 1 0 2 0;
#X connect 2 0 4 0;
#X connect 3 0 4 0;
#X connect 3 1 4 1;
#X connect 4 0 12 0;
#X connect 5 0 0 0;
#X connect 5 1 6 0;
#X connect 5 2 7 0;
#X connect 5 3 8 0;
#X connect 5 4 9 0;
#X connect 5 5 10 0;
#X connect 5 6 36 0;
#X connect 6 0 3 0;
#X connect 7 0 3 0;
#X connect 8 0 3 0;
#X connect 9 0 3 0;
#X connect 10 0 3 0;
#X connect 11 0 5 0;
#X connect 12 0 13 0;
#X connect 13 0 14 0;
#X connect 14 0 15 0;
#X connect 15 0 16 0;
#X connect 15 0 34 1;
#X connect 15 0 35 1;
#X connect 15 0 42 0;
#X connect 16 0 17 0;
#X connect 17 0 50 0;
#X connect 18 0 15 1;
#X connect 19 0 34 0;
#X connect 20 0 21 0;
#X connect 21 0 22 1;
#X connect 22 0 24 0;
#X connect 23 0 22 0;
#X connect 24 0 25 0;
#X connect 25 0 50 1;
#X connect 26 0 27 0;
#X connect 27 0 28 1;
#X connect 28 0 50 2;
#X connect 29 0 28 0;
#X connect 30 0 20 0;
#X connect 30 0 26 0;
#X connect 30 0 18 0;
#X connect 30 0 11 0;
#X connect 30 0 37 0;
#X connect 31 0 35 0;
#X connect 34 0 40 0;
#X connect 35 0 41 0;
#X connect 36 0 3 0;
#X connect 37 0 38 0;
#X connect 38 0 39 0;
#X connect 39 0 41 1;
#X connect 39 0 40 1;
#X connect 40 0 45 0;
#X connect 41 0 46 0;
#X connect 42 0 43 0;
#X connect 43 0 49 0;
#X connect 45 0 32 0;
#X connect 46 0 33 0;
#X connect 47 0 48 0;
#X connect 48 0 45 1;
#X connect 48 0 46 1;
#X connect 48 0 49 1;
#X connect 49 0 44 0;
#X connect 50 0 19 0;
#X connect 50 1 31 0;
#X restore 315 239 pd formants~;
#X obj 115 261 *~ 0.15;
#X obj 25 217 *~ 0.2;
#N canvas 1138 249 411 565 karplus~ 0;
#X obj -130 176 r note;
#X obj -130 198 mtof;
#X msg -130 242 1000 \$1;
#X obj -130 264 /;
#X obj -30 367 delwrite~ karplus 8000;
#X obj 15 20 sel 1 2 3 4;
#X obj 15 76 spigot;
#X obj 15 42 t b b;
#X obj 48 59 random 2;
#X obj 65 76 spigot;
#X obj 108 59 random 2;
#X obj 115 76 spigot;
#X obj 165 76 spigot;
#X obj 15 98 bang;
#X obj 15 120 t b b;
#X obj -30 323 noise~;
#X obj 60 198 r ms;
#X obj -26 159 / 1000;
#X obj -26 181 + 0.1;
#X obj -26 203 t b f;
#X obj -26 137 random 5000;
#X obj 15 242 pack f f;
#X msg 15 284 100 \, 0 \$2;
#X obj 15 306 line~;
#X obj 15 328 dbtorms~;
#X obj 60 220 *;
#X obj -30 345 *~;
#X obj -130 532 outlet~;
#X obj 15 -2 inlet;
#X obj -130 328 lop~ 6000;
#X obj -130 350 *~ 0.8;
#X obj -97 154 / 5000;
#X obj -97 176 / 2;
#X obj -97 198 + 0.5;
#X obj 117 137 random 3000;
#X obj 117 159 + 1000;
#X obj -130 306 vd~ karplus;
#X obj -130 286 lop~ 1;
#X obj 136 340 samphold~;
#X msg 187 296 1 \, 0 1;
#X obj 187 318 line~;
#X obj 136 384 +~ 0.5;
#X obj 136 406 *~ 100;
#X obj 136 362 /~ 2;
#X obj -130 220 * 4;
#X obj -130 488 *~ 2;
#X obj 14 449 sig~ -0.15;
#X obj -120 397 hip~ 1000;
#X obj -120 419 *~ 0.8;
#X obj -130 510 *~;
#X obj -45 471 r karplus;
#X obj -45 493 lop~ 20;
#X obj -130 466 formants~ 15;
#X connect 0 0 1 0;
#X connect 1 0 44 0;
#X connect 2 0 3 0;
#X connect 3 0 37 0;
#X connect 5 0 7 0;
#X connect 5 1 9 0;
#X connect 5 2 11 0;
#X connect 5 3 12 0;
#X connect 6 0 13 0;
#X connect 7 0 6 0;
#X connect 7 1 8 0;
#X connect 7 1 10 0;
#X connect 8 0 6 1;
#X connect 8 0 11 1;
#X connect 9 0 13 0;
#X connect 10 0 9 1;
#X connect 10 0 12 1;
#X connect 11 0 13 0;
#X connect 12 0 13 0;
#X connect 13 0 14 0;
#X connect 14 0 21 0;
#X connect 14 1 20 0;
#X connect 14 1 34 0;
#X connect 14 1 39 0;
#X connect 15 0 26 0;
#X connect 15 0 38 0;
#X connect 16 0 25 0;
#X connect 17 0 18 0;
#X connect 18 0 19 0;
#X connect 19 0 25 0;
#X connect 19 1 25 1;
#X connect 20 0 17 0;
#X connect 20 0 31 0;
#X connect 21 0 22 0;
#X connect 22 0 23 0;
#X connect 23 0 24 0;
#X connect 24 0 26 1;
#X connect 25 0 21 1;
#X connect 26 0 4 0;
#X connect 28 0 5 0;
#X connect 29 0 30 0;
#X connect 30 0 4 0;
#X connect 31 0 32 0;
#X connect 32 0 33 0;
#X connect 33 0 30 1;
#X connect 34 0 35 0;
#X connect 35 0 29 1;
#X connect 36 0 29 0;
#X connect 36 0 47 0;
#X connect 36 0 52 0;
#X connect 37 0 36 0;
#X connect 38 0 43 0;
#X connect 39 0 40 0;
#X connect 40 0 38 1;
#X connect 41 0 42 0;
#X connect 42 0 52 1;
#X connect 43 0 41 0;
#X connect 44 0 2 0;
#X connect 45 0 49 0;
#X connect 46 0 52 2;
#X connect 47 0 48 0;
#X connect 48 0 52 0;
#X connect 49 0 27 0;
#X connect 50 0 51 0;
#X connect 51 0 49 1;
#X connect 52 0 45 0;
#X restore 234 195 pd karplus~;
#X obj 225 261 *~ 0.3;
#X obj 384 261 *~ 0.3;
#N canvas 945 320 361 269 vox~ 0;
#N canvas 1111 444 374 393 vox~ 0;
#X obj 39 136 clip~ -1 1;
#X msg 160 2 1 \, 0 1;
#X obj 160 24 line~;
#X obj 109 41 samphold~;
#X obj 109 19 noise~;
#X obj 109 63 +~ 1;
#X obj 109 85 *~ 50;
#X msg 260 -3 1 \, 0 1;
#X obj 260 19 line~;
#X obj 209 36 samphold~;
#X obj 209 14 noise~;
#X obj 64 -13 noise~;
#X obj 64 9 snapshot~;
#X obj 64 31 / 2;
#X obj 64 53 + 0.5;
#X obj 209 81 /~ 2;
#X obj 9 246 outlet~;
#X obj 78 246 outlet~;
#X obj 64 -118 inlet;
#X obj 306 -41 r ms;
#X msg 306 3 1000 \$1;
#X obj 306 25 /;
#X obj 306 69 osc~;
#X msg 190 -20 0;
#X obj 226 102 *~;
#X obj 9 -13 mtof;
#X obj 9 202 *~;
#X obj 78 202 *~;
#X obj 306 185 +~ 0.75;
#X obj 306 163 /~ 4;
#X obj 9 158 formants~ 30;
#X obj 306 -19 * 16;
#X obj 29 -32 s note;
#X obj 64 75 lop~ 1;
#X obj 9 180 *~ 1.1;
#X obj 78 180 *~ 1.1;
#X obj 78 224 *~;
#X obj 9 224 *~;
#X obj 163 185 r vox;
#X obj 163 207 lop~ 1;
#X obj 9 9 lop~ 20;
#X obj 39 114 *~ 100;
#X obj 39 70 phasor~;
#X obj 109 141 +~;
#X obj 226 124 *~ 0.25;
#X obj 39 92 -~;
#X obj 9 136 clip~ -1 1;
#X obj 9 114 *~ 100;
#X obj 9 70 phasor~;
#X obj 9 92 -~;
#X obj 9 31 /~ 4;
#X obj 9 -81 drunk 38 5;
#X obj 9 -59 + 20;
#X connect 0 0 30 0;
#X connect 1 0 2 0;
#X connect 2 0 3 1;
#X connect 3 0 5 0;
#X connect 4 0 3 0;
#X connect 5 0 6 0;
#X connect 6 0 24 1;
#X connect 6 0 43 0;
#X connect 7 0 8 0;
#X connect 8 0 9 1;
#X connect 9 0 15 0;
#X connect 10 0 9 0;
#X connect 11 0 12 0;
#X connect 12 0 13 0;
#X connect 13 0 14 0;
#X connect 14 0 33 0;
#X connect 15 0 30 2;
#X connect 18 0 1 0;
#X connect 18 0 7 0;
#X connect 18 0 12 0;
#X connect 18 0 23 0;
#X connect 18 0 51 0;
#X connect 19 0 31 0;
#X connect 20 0 21 0;
#X connect 21 0 22 0;
#X connect 22 0 24 0;
#X connect 22 0 29 0;
#X connect 23 0 22 1;
#X connect 24 0 44 0;
#X connect 25 0 40 0;
#X connect 26 0 37 0;
#X connect 27 0 36 0;
#X connect 28 0 27 1;
#X connect 28 0 26 1;
#X connect 29 0 28 0;
#X connect 30 0 34 0;
#X connect 30 1 35 0;
#X connect 31 0 20 0;
#X connect 33 0 45 1;
#X connect 33 0 49 1;
#X connect 34 0 26 0;
#X connect 35 0 27 0;
#X connect 36 0 17 0;
#X connect 37 0 16 0;
#X connect 38 0 39 0;
#X connect 39 0 36 1;
#X connect 39 0 37 1;
#X connect 40 0 42 0;
#X connect 40 0 50 0;
#X connect 41 0 0 0;
#X connect 42 0 45 0;
#X connect 43 0 30 1;
#X connect 44 0 43 1;
#X connect 45 0 41 0;
#X connect 46 0 30 0;
#X connect 47 0 46 0;
#X connect 48 0 49 0;
#X connect 49 0 47 0;
#X connect 50 0 48 0;
#X connect 51 0 52 0;
#X connect 52 0 32 0;
#X connect 52 0 25 0;
#X restore 0 95 pd vox~;
#X obj 149 112 delwrite~ voxdel1 8000;
#X obj 221 140 vd~ voxdel1;
#X obj 295 79 osc~;
#X obj 221 -4 r ms;
#X obj 295 101 *~;
#X msg 295 35 1000 \$1;
#X obj 295 57 /;
#X obj 295 123 *~ 0.01;
#X obj 221 162 lop~ 3000;
#X obj 53 113 sig~ 1;
#X obj 53 135 -~;
#X obj 0 117 *~;
#X obj 58 157 *~;
#X obj 98 74 pack f f;
#X msg 98 96 1 \, 0 \$2;
#X obj 98 118 line~;
#X obj 295 13 * 16;
#X obj 221 57 * 4;
#X obj 0 73 inlet;
#X obj 0 184 outlet~;
#X obj 50 214 outlet~;
#X obj 221 184 *~ 0.24;
#X obj 42 24 s~ vox1;
#X obj 102 24 s~ vox2;
#X obj 98 140 lop~ 50;
#X obj 148 174 r vox;
#X obj 148 196 lop~ 1;
#X obj 58 179 *~;
#X obj 98 52 r kickbang;
#X obj 221 84 lop~ 1;
#X connect 0 0 12 0;
#X connect 0 0 23 0;
#X connect 0 1 1 0;
#X connect 2 0 9 0;
#X connect 2 0 13 0;
#X connect 3 0 5 0;
#X connect 4 0 17 0;
#X connect 4 0 18 0;
#X connect 5 0 8 0;
#X connect 6 0 7 0;
#X connect 7 0 3 0;
#X connect 8 0 2 0;
#X connect 9 0 22 0;
#X connect 10 0 11 0;
#X connect 11 0 12 1;
#X connect 11 0 13 1;
#X connect 12 0 20 0;
#X connect 13 0 28 0;
#X connect 14 0 15 0;
#X connect 15 0 16 0;
#X connect 16 0 25 0;
#X connect 17 0 6 0;
#X connect 18 0 14 1;
#X connect 18 0 30 0;
#X connect 19 0 0 0;
#X connect 22 0 1 0;
#X connect 25 0 11 1;
#X connect 26 0 27 0;
#X connect 27 0 28 1;
#X connect 28 0 21 0;
#X connect 28 0 24 0;
#X connect 29 0 14 0;
#X connect 30 0 2 0;
#X connect 30 0 5 1;
#X restore 168 277 pd vox~;
#X obj -35 212 s~ snare;
#X obj -5 256 s~ contra;
#X obj 354 212 s~ karplus;
#X obj -55 256 s~ kick;
#X obj 8 7 line;
#X msg 8 -15 1 \, 0 1;
#X obj 237 429 gemwin;
#X msg 256 387 0 \, destroy;
#X obj 237 343 tgl 17 0 empty empty ON/OFF 20 8 0 10 -4034 -1 -1 1
1;
#X obj 237 365 sel 1 0;
#X obj 58 483 r~ kick;
#X obj 4 446 osc~ 100;
#X obj 31 463 z~ 100;
#X obj 321 474 r note;
#X obj 334 518 mtof;
#X obj 334 560 osc~;
#X obj 378 574 osc~;
#X obj 446 496 r~ karplus;
#X obj 446 518 *~ 0.5;
#X obj 321 496 t f b;
#X obj 207 507 translate 1 0 0 2;
#X obj 207 465 gemhead 50;
#X obj -23 426 gemhead 49;
#X msg 252 532 draw point;
#X obj 31 623 z~ 100;
#X obj -23 536 gemhead 49;
#X obj 58 623 r~ snare;
#X obj 4 606 osc~ 101;
#X msg -53 611 draw line;
#X obj -23 588 translate 1 0 0 -2.5;
#X obj 613 581 z~ 100;
#X obj 559 524 gemhead 49;
#X obj 586 564 osc~ 101;
#X obj 740 545 r~ formants1;
#X obj 701 476 noise~;
#X obj 701 498 samphold~;
#X obj 606 475 noise~;
#X obj 606 497 samphold~;
#X obj 701 520 *~ 4;
#X obj 606 519 *~ 4;
#X obj 742 627 gemhead 49;
#X obj 884 579 noise~;
#X obj 884 601 samphold~;
#X obj 789 578 noise~;
#X obj 789 600 samphold~;
#X obj 884 623 *~ 4;
#X obj 789 622 *~ 4;
#X msg 712 714 width 2;
#X obj 923 648 r~ formants2;
#X obj 31 753 z~ 100;
#X obj 4 736 osc~ 101;
#X obj 58 753 r~ contra;
#X obj 378 552 * 1.01;
#X obj 334 540 / 4;
#X obj 266 906 z~ 100;
#X obj 239 889 osc~ 101;
#X msg 182 936 width 1;
#X obj 212 871 translate 1 0 0 2;
#X obj -23 696 gemhead 49;
#X obj 239 936 r~ vox1;
#X obj 286 936 r~ vox2;
#X obj 426 906 z~ 100;
#X obj 399 889 osc~ 101;
#X msg 342 936 width 1;
#X obj 372 827 gemhead 2;
#X obj 399 936 r~ vox1;
#X obj 449 936 r~ vox2;
#X msg 342 894 draw points;
#X obj 372 849 color 0.25 0.25 0.25;
#X obj 372 871 translate 1 0 0 2.5;
#X msg 529 611 width 1;
#X obj 102 906 z~ 100;
#X obj 75 889 osc~ 101;
#X msg 18 936 width 1;
#X obj 48 827 gemhead 2;
#X obj 75 936 r~ vox1;
#X obj 125 936 r~ vox2;
#X obj 48 871 translate 1 0 0 1.5;
#X obj 212 827 gemhead 2;
#X msg 182 894 draw points;
#X msg 18 894 draw points;
#X obj 212 849 color 0.3 0.3 0.3;
#X obj 48 849 color 0.4 0.4 0.4;
#X obj 586 906 z~ 100;
#X obj 559 889 osc~ 101;
#X msg 502 936 width 1;
#X obj 532 827 gemhead 2;
#X obj 559 936 r~ vox1;
#X obj 609 936 r~ vox2;
#X msg 502 894 draw points;
#X msg 502 916 length 500;
#X obj 736 906 z~ 100;
#X obj 709 889 osc~ 101;
#X msg 652 936 width 1;
#X obj 682 827 gemhead 2;
#X obj 709 936 r~ vox1;
#X obj 759 936 r~ vox2;
#X msg 652 894 draw points;
#X msg 652 916 length 500;
#X obj 532 849 color 0.2 0.2 0.2;
#X obj 682 849 color 0.18 0.18 0.18;
#X obj 532 871 translate 1 0 0 2.75;
#X obj 682 871 translate 1 0 0 3;
#X obj 147 665 random 1000;
#X obj 147 687 / 2000;
#X obj 147 775 pack f f f;
#X obj 187 665 random 1000;
#X obj 187 687 / 2000;
#X obj 227 665 random 1000;
#X obj 227 687 / 2000;
#X obj 147 648 t b b b;
#X obj 147 753 line;
#X obj 187 753 line;
#X obj 227 753 line;
#X msg 147 731 \$1 50;
#X msg 187 731 \$1 50;
#X msg 227 731 \$1 50;
#X obj 227 770 - 0.1;
#X obj 267 770 - 0.1;
#X obj 307 770 - 0.1;
#X obj 227 792 pack f f f;
#X obj 346 792 pack f f f;
#X obj 346 770 - 0.15;
#X obj 387 770 - 0.15;
#X obj 427 770 - 0.15;
#X obj 466 792 pack f f f;
#X obj 466 770 - 0.2;
#X obj 507 770 - 0.2;
#X obj 547 770 - 0.2;
#X obj 586 792 pack f f f;
#X obj 586 770 - 0.22;
#X obj 627 770 - 0.22;
#X obj 667 770 - 0.22;
#X obj 147 709 + 0.2;
#X obj 187 709 + 0.2;
#X obj 227 709 + 0.2;
#X obj 147 604 r note;
#X obj 147 626 change;
#X obj 769 667 phasor~ 1000;
#X obj 796 692 phasor~ 90;
#X obj 58 645 *~ 3;
#X msg -53 653 width 2;
#X obj -23 558 color;
#X obj 340 643 + 0.2;
#X obj 380 643 + 0.2;
#X obj 420 643 + 0.2;
#X obj 340 665 pack f f f;
#X obj 340 725 pack f f f;
#X obj 207 487 color;
#X obj 420 703 + 0.6;
#X obj 380 703 + 0.6;
#X obj 340 703 + 0.6;
#X msg 435 456 color \$1 \$2 \$3;
#X obj 510 704 pack f f f;
#X msg -53 473 draw points;
#X msg -53 783 width 1;
#X msg -53 741 draw fill;
#X obj 58 775 *~ 30;
#X obj -23 718 translate 1 0 0 -17;
#X obj 510 682 * 0.22;
#X obj 551 682 * 0.22;
#X obj 591 682 * 0.22;
#X obj 486 282 gemhead 999;
#X obj 486 304 syphonserver;
#X obj 489 151 s vox;
#X obj 489 129 tgl 17 0 empty empty empty 17 7 0 10 -262144 -1 -1 0
1;
#X obj 189 129 tgl 17 0 empty empty empty 17 7 0 10 -262144 -1 -1 1
1;
#X obj 189 151 s kick;
#X obj 229 129 tgl 17 0 empty empty empty 17 7 0 10 -262144 -1 -1 1
1;
#X obj 229 151 s snare;
#X obj 269 129 tgl 17 0 empty empty empty 17 7 0 10 -262144 -1 -1 1
1;
#X obj 269 151 s contra;
#X obj 329 129 tgl 17 0 empty empty empty 17 7 0 10 -262144 -1 -1 1
1;
#X obj 329 151 s karplus;
#X obj 389 129 tgl 17 0 empty empty empty 17 7 0 10 -262144 -1 -1 1
1;
#X obj 389 151 s formants;
#X obj 796 714 *~;
#X obj 769 689 *~;
#X obj 923 670 *~ -1;
#X obj 923 692 +~ 1;
#X obj 613 603 *~;
#X obj 586 586 *~;
#X obj 740 567 *~ -1;
#X obj 740 589 +~ 1;
#X msg 529 569 draw points;
#X msg 712 672 draw points;
#X obj -23 510 scopeXYZ~ 512;
#X obj -23 670 scopeXYZ~ 512;
#X obj -23 800 scopeXYZ~ 512;
#X obj 48 953 scopeXYZ~ 512;
#X obj 212 953 scopeXYZ~ 512;
#X obj 372 953 scopeXYZ~ 512;
#X obj 532 953 scopeXYZ~ 512;
#X obj 682 953 scopeXYZ~ 512;
#X obj 742 731 scopeXYZ~ 512;
#X obj 559 628 scopeXYZ~ 512;
#X obj 207 587 scopeXYZ~ 512;
#N canvas 0 22 450 278 (subpatch) 0;
#X array \$0-osc 100 float 1;
#A 0 0 0 0 0 0 0 0 0 0 0 0 0 0 0 0 0 0 0 0 0 0 0 0 0 0 0 0 0 0 0 0
0 0 0 0 0 0 0 0 0 0 0 0 0 0 0 0 0 0 0 0 0 0 0 0 0 0 0 0 0 0 0 0 0 0
0 0 0 0 0 0 0 0 0 0 0 0 0 0 0 0 0 0 0 0 0 0 0 0 0 0 0 0 0 0 0 0 0 0
0;
#X coords 0 1 99 -1 200 140 1;
#X restore 591 113 graph;
#X msg -53 493 length 2000;
#X msg -53 633 length 1000;
#X msg -53 763 length 500;
#X msg 18 916 length 500;
#X msg 182 916 length 500;
#X msg 342 916 length 500;
#X msg 712 694 length 500;
#X msg 529 591 length 500;
#X obj 58 261 *~ 0.1;
#X msg 261 553 length 1200;
#X obj 118 129 alternate;
#X obj 234 217 *~ 0.2;
#X obj 168 299 *~ 0.7;
#X obj 208 299 *~ 0.3;
#X obj 248 299 *~ 0.7;
#X obj 288 299 *~ 0.3;
#X msg 237 407 create \, 1 \, frame 30 \, dimen 1280 720;
#X obj 559 546 translate 1 -18 0 -12;
#X obj 742 649 translate 1 18 0 -12;
#X obj 407 326 tgl 15 0 empty empty empty 17 7 0 10 -262144 -1 -1 0
1;
#X obj 407 346 metro 50;
#X obj 407 368 tabwrite~ \$0-osc;
#X obj 171 -48 loadbang;
#X msg 171 -26 120;
#X msg 171 -4 1;
#X connect 0 0 11 0;
#X connect 1 0 4 0;
#X connect 2 0 3 0;
#X connect 3 0 5 1;
#X connect 3 0 17 0;
#X connect 4 0 2 0;
#X connect 5 0 6 0;
#X connect 6 0 7 0;
#X connect 6 0 9 0;
#X connect 6 0 10 0;
#X connect 7 0 6 1;
#X connect 8 0 6 0;
#X connect 9 0 8 0;
#X connect 10 0 20 0;
#X connect 10 0 246 0;
#X connect 10 1 12 0;
#X connect 11 0 5 0;
#X connect 11 1 8 0;
#X connect 12 0 13 0;
#X connect 13 0 14 0;
#X connect 14 0 15 0;
#X connect 14 0 30 0;
#X connect 14 0 34 0;
#X connect 15 0 16 0;
#X connect 16 0 19 0;
#X connect 16 0 18 0;
#X connect 16 0 31 0;
#X connect 18 0 35 0;
#X connect 18 1 25 0;
#X connect 19 0 24 0;
#X connect 19 0 41 0;
#X connect 20 0 39 0;
#X connect 20 0 244 0;
#X connect 20 1 32 0;
#X connect 21 0 28 0;
#X connect 22 0 21 0;
#X connect 22 0 23 0;
#X connect 23 0 29 0;
#X connect 24 0 22 0;
#X connect 25 0 23 0;
#X connect 26 0 21 0;
#X connect 28 0 27 0;
#X connect 29 0 27 1;
#X connect 30 0 33 0;
#X connect 30 0 38 0;
#X connect 31 0 26 0;
#X connect 31 1 36 0;
#X connect 32 0 23 0;
#X connect 33 0 22 0;
#X connect 34 0 40 0;
#X connect 34 0 247 0;
#X connect 35 0 21 0;
#X connect 36 0 23 0;
#X connect 37 0 248 0;
#X connect 37 0 249 0;
#X connect 37 1 250 0;
#X connect 37 1 251 0;
#X connect 42 0 0 0;
#X connect 43 0 42 0;
#X connect 45 0 44 0;
#X connect 46 0 47 0;
#X connect 47 0 252 0;
#X connect 47 1 45 0;
#X connect 48 0 224 3;
#X connect 49 0 50 0;
#X connect 49 0 224 1;
#X connect 50 0 224 2;
#X connect 51 0 57 0;
#X connect 52 0 91 0;
#X connect 53 0 234 1;
#X connect 54 0 234 2;
#X connect 55 0 56 0;
#X connect 56 0 234 3;
#X connect 57 0 52 0;
#X connect 58 0 234 0;
#X connect 59 0 186 0;
#X connect 60 0 224 0;
#X connect 61 0 234 0;
#X connect 62 0 225 2;
#X connect 63 0 180 0;
#X connect 64 0 178 0;
#X connect 65 0 62 0;
#X connect 65 0 225 1;
#X connect 66 0 225 0;
#X connect 67 0 225 0;
#X connect 68 0 218 0;
#X connect 69 0 253 0;
#X connect 70 0 68 0;
#X connect 70 0 219 0;
#X connect 71 0 73 1;
#X connect 71 0 75 1;
#X connect 71 0 220 0;
#X connect 71 0 233 3;
#X connect 72 0 73 0;
#X connect 73 0 76 0;
#X connect 74 0 75 0;
#X connect 75 0 77 0;
#X connect 76 0 233 2;
#X connect 77 0 233 1;
#X connect 78 0 254 0;
#X connect 79 0 80 0;
#X connect 80 0 83 0;
#X connect 81 0 82 0;
#X connect 82 0 84 0;
#X connect 83 0 232 2;
#X connect 84 0 232 1;
#X connect 85 0 232 0;
#X connect 86 0 80 1;
#X connect 86 0 82 1;
#X connect 86 0 216 0;
#X connect 86 0 232 3;
#X connect 87 0 226 2;
#X connect 88 0 87 0;
#X connect 88 0 226 1;
#X connect 89 0 195 0;
#X connect 90 0 54 0;
#X connect 91 0 53 0;
#X connect 91 0 90 0;
#X connect 92 0 228 2;
#X connect 93 0 92 0;
#X connect 93 0 228 1;
#X connect 94 0 228 0;
#X connect 95 0 228 0;
#X connect 96 0 196 0;
#X connect 97 0 228 1;
#X connect 98 0 228 3;
#X connect 99 0 229 2;
#X connect 100 0 99 0;
#X connect 100 0 229 1;
#X connect 101 0 229 0;
#X connect 102 0 106 0;
#X connect 103 0 229 1;
#X connect 104 0 229 3;
#X connect 105 0 229 0;
#X connect 106 0 107 0;
#X connect 107 0 229 0;
#X connect 108 0 233 0;
#X connect 109 0 227 2;
#X connect 110 0 109 0;
#X connect 110 0 227 1;
#X connect 111 0 227 0;
#X connect 112 0 120 0;
#X connect 113 0 227 1;
#X connect 114 0 227 3;
#X connect 115 0 227 0;
#X connect 116 0 119 0;
#X connect 117 0 228 0;
#X connect 118 0 227 0;
#X connect 119 0 95 0;
#X connect 120 0 115 0;
#X connect 121 0 230 2;
#X connect 122 0 121 0;
#X connect 122 0 230 1;
#X connect 123 0 230 0;
#X connect 124 0 137 0;
#X connect 125 0 230 1;
#X connect 126 0 230 3;
#X connect 127 0 230 0;
#X connect 128 0 230 0;
#X connect 129 0 231 2;
#X connect 130 0 129 0;
#X connect 130 0 231 1;
#X connect 131 0 231 0;
#X connect 132 0 138 0;
#X connect 133 0 231 1;
#X connect 134 0 231 3;
#X connect 135 0 231 0;
#X connect 136 0 231 0;
#X connect 137 0 139 0;
#X connect 138 0 140 0;
#X connect 139 0 230 0;
#X connect 140 0 231 0;
#X connect 141 0 142 0;
#X connect 142 0 171 0;
#X connect 143 0 120 1;
#X connect 144 0 145 0;
#X connect 145 0 172 0;
#X connect 146 0 147 0;
#X connect 147 0 173 0;
#X connect 148 0 141 0;
#X connect 148 1 144 0;
#X connect 148 2 146 0;
#X connect 149 0 143 0;
#X connect 149 0 155 0;
#X connect 149 0 160 0;
#X connect 149 0 164 0;
#X connect 149 0 168 0;
#X connect 149 0 181 0;
#X connect 149 0 189 0;
#X connect 149 0 197 0;
#X connect 150 0 143 1;
#X connect 150 0 156 0;
#X connect 150 0 161 0;
#X connect 150 0 165 0;
#X connect 150 0 169 0;
#X connect 150 0 182 0;
#X connect 150 0 188 0;
#X connect 150 0 198 0;
#X connect 151 0 143 2;
#X connect 151 0 157 0;
#X connect 151 0 162 0;
#X connect 151 0 166 0;
#X connect 151 0 170 0;
#X connect 151 0 183 0;
#X connect 151 0 187 0;
#X connect 151 0 199 0;
#X connect 152 0 149 0;
#X connect 153 0 150 0;
#X connect 154 0 151 0;
#X connect 155 0 158 0;
#X connect 156 0 158 1;
#X connect 157 0 158 2;
#X connect 158 0 119 1;
#X connect 159 0 106 1;
#X connect 160 0 159 0;
#X connect 161 0 159 1;
#X connect 162 0 159 2;
#X connect 163 0 137 1;
#X connect 164 0 163 0;
#X connect 165 0 163 1;
#X connect 166 0 163 2;
#X connect 167 0 138 1;
#X connect 168 0 167 0;
#X connect 169 0 167 1;
#X connect 170 0 167 2;
#X connect 171 0 152 0;
#X connect 172 0 153 0;
#X connect 173 0 154 0;
#X connect 174 0 175 0;
#X connect 175 0 148 0;
#X connect 176 0 215 0;
#X connect 177 0 214 0;
#X connect 178 0 225 3;
#X connect 179 0 225 0;
#X connect 180 0 67 0;
#X connect 181 0 184 0;
#X connect 182 0 184 1;
#X connect 183 0 184 2;
#X connect 184 0 180 1;
#X connect 185 0 186 1;
#X connect 186 0 58 0;
#X connect 187 0 185 2;
#X connect 188 0 185 1;
#X connect 189 0 185 0;
#X connect 190 0 44 0;
#X connect 191 0 190 0;
#X connect 192 0 224 0;
#X connect 193 0 226 0;
#X connect 194 0 226 0;
#X connect 195 0 226 3;
#X connect 196 0 226 0;
#X connect 197 0 191 0;
#X connect 198 0 191 1;
#X connect 199 0 191 2;
#X connect 200 0 201 0;
#X connect 203 0 202 0;
#X connect 204 0 205 0;
#X connect 206 0 207 0;
#X connect 208 0 209 0;
#X connect 210 0 211 0;
#X connect 212 0 213 0;
#X connect 214 0 232 2;
#X connect 215 0 232 1;
#X connect 216 0 217 0;
#X connect 217 0 214 1;
#X connect 217 0 215 1;
#X connect 218 0 233 2;
#X connect 219 0 233 1;
#X connect 220 0 221 0;
#X connect 221 0 218 1;
#X connect 221 0 219 1;
#X connect 222 0 233 0;
#X connect 223 0 232 0;
#X connect 236 0 224 0;
#X connect 237 0 225 0;
#X connect 238 0 226 0;
#X connect 239 0 227 0;
#X connect 240 0 228 0;
#X connect 241 0 229 0;
#X connect 242 0 232 0;
#X connect 243 0 233 0;
#X connect 244 0 21 0;
#X connect 245 0 234 0;
#X connect 246 0 37 0;
#X connect 247 0 22 0;
#X connect 248 0 21 0;
#X connect 249 0 23 0;
#X connect 250 0 23 0;
#X connect 251 0 21 0;
#X connect 252 0 44 0;
#X connect 253 0 233 0;
#X connect 254 0 232 0;
#X connect 255 0 256 0;
#X connect 256 0 257 0;
#X connect 258 0 259 0;
#X connect 259 0 1 0;
#X connect 259 0 260 0;
#X connect 260 0 204 0;
#X connect 260 0 206 0;
#X connect 260 0 208 0;
#X connect 260 0 210 0;
#X connect 260 0 212 0;
#X connect 260 0 203 0;
