#N canvas 975 69 480 751 10;
#X obj 105 183 eucgui;
#X obj 105 667 makenote;
#X obj 105 623 t b f b;
#X msg 151 645 20;
#X obj 283 667 makenote;
#X obj 283 623 t b f b;
#X msg 329 645 20;
#X msg 105 645 36;
#X msg 283 645 37;
#X obj 105 689 noteout 1;
#X obj 283 689 noteout 1;
#X obj 105 8 midirealtimein;
#X obj 105 74 i;
#X obj 135 74 + 1;
#X msg 120 57 0;
#X obj 105 30 sel 248 250;
#X obj 105 139 i;
#X obj 135 139 + 1;
#X obj 105 96 % 6;
#X obj 105 117 sel 3;
#X obj 105 161 + 1;
#X text 204 646 MIDI NOTE ->;
#X text 8 604 BEATS OUTLET ->;
#X text 298 604 <- ACCENTS OUTLET;
#X text 357 643 <- DURATION (ms);
#X text 65 709 MIDI OUT (Channel Nubmer);
#X text 135 163 MIDI CLOCK In;
#X text 276 160 Parameters;
#X text 24 646 MIDI NOTE ->;
#X connect 0 0 2 0;
#X connect 0 1 5 0;
#X connect 1 0 9 0;
#X connect 1 1 9 1;
#X connect 2 0 7 0;
#X connect 2 1 1 1;
#X connect 2 2 3 0;
#X connect 3 0 1 2;
#X connect 4 0 10 0;
#X connect 4 1 10 1;
#X connect 5 0 8 0;
#X connect 5 1 4 1;
#X connect 5 2 6 0;
#X connect 6 0 4 2;
#X connect 7 0 1 0;
#X connect 8 0 4 0;
#X connect 11 0 15 0;
#X connect 12 0 13 0;
#X connect 12 0 18 0;
#X connect 13 0 12 1;
#X connect 14 0 16 1;
#X connect 14 0 12 1;
#X connect 15 0 12 0;
#X connect 15 1 14 0;
#X connect 16 0 17 0;
#X connect 16 0 20 0;
#X connect 17 0 16 1;
#X connect 18 0 19 0;
#X connect 19 0 16 0;
#X connect 20 0 0 0;
#X coords 0 751 1 750 185 435 0;
